# xmcd
#
# Track frame offsets:
#	150
#	20460
#	39777
#	57407
#	72872
#	89152
#	122785
#	141982
#	165590
#
# Disc length: 2377 seconds
#
# Revision: 0
# Processed by: cddbd v1.5.1PL2 Copyright (c) Steve Scherf et al.
# Submitted via: audiograbber 1.83.01
#
DISCID=7b094709
DTITLE=Willie Barker - Flat Caps and Turpentine
DYEAR=1996
DGENRE=
TTITLE0=Midnight Blues
TTITLE1=Burn Me Down
TTITLE2=Dog Faced Man
TTITLE3=Whiskey Train
TTITLE4=Don't Look Back
TTITLE5=Pride
TTITLE6=Talkin To Yourself
TTITLE7=Party Girl
TTITLE8=All My Life
EXTD=
EXTT0=
EXTT1=
EXTT2=
EXTT3=
EXTT4=
EXTT5=
EXTT6=
EXTT7=
EXTT8=
PLAYORDER=
